<mxfile host="Electron" modified="2024-03-06T14:53:48.656Z" agent="Mozilla/5.0 (Windows NT 10.0; Win64; x64) AppleWebKit/537.36 (KHTML, like Gecko) draw.io/23.1.5 Chrome/120.0.6099.109 Electron/28.1.0 Safari/537.36" etag="eHLqiYcrVrtw6sU9lw_Y" version="23.1.5" type="device">
  <diagram id="C5RBs43oDa-KdzZeNtuy" name="Page-1">
    <mxGraphModel dx="1363" dy="657" grid="1" gridSize="10" guides="1" tooltips="1" connect="1" arrows="1" fold="1" page="1" pageScale="1" pageWidth="827" pageHeight="1169" math="0" shadow="0">
      <root>
        <mxCell id="WIyWlLk6GJQsqaUBKTNV-0" />
        <mxCell id="WIyWlLk6GJQsqaUBKTNV-1" parent="WIyWlLk6GJQsqaUBKTNV-0" />
        <mxCell id="E12AhFeayMc4gj6BtyuT-7" value="" style="rounded=1;whiteSpace=wrap;html=1;" vertex="1" parent="WIyWlLk6GJQsqaUBKTNV-1">
          <mxGeometry x="70" y="110" width="510" height="310" as="geometry" />
        </mxCell>
        <mxCell id="E12AhFeayMc4gj6BtyuT-8" value="browser" style="rounded=0;whiteSpace=wrap;html=1;fillColor=#f5f5f5;fontColor=#333333;strokeColor=#666666;" vertex="1" parent="WIyWlLk6GJQsqaUBKTNV-1">
          <mxGeometry x="70" y="110" width="120" height="40" as="geometry" />
        </mxCell>
        <mxCell id="E12AhFeayMc4gj6BtyuT-9" value="&amp;nbsp; DOM&lt;br&gt;&lt;br&gt;&lt;br&gt;&lt;br&gt;&lt;div&gt;&lt;br&gt;&lt;/div&gt;&lt;div&gt;&lt;br&gt;&lt;/div&gt;&lt;div&gt;&lt;br&gt;&lt;/div&gt;&lt;div&gt;&lt;br&gt;&lt;/div&gt;" style="rounded=1;whiteSpace=wrap;html=1;align=left;fillColor=#ffe6cc;strokeColor=#d79b00;" vertex="1" parent="WIyWlLk6GJQsqaUBKTNV-1">
          <mxGeometry x="90" y="180" width="120" height="140" as="geometry" />
        </mxCell>
        <mxCell id="E12AhFeayMc4gj6BtyuT-10" value="UI" style="rounded=1;whiteSpace=wrap;html=1;fillColor=#f8cecc;strokeColor=#b85450;" vertex="1" parent="WIyWlLk6GJQsqaUBKTNV-1">
          <mxGeometry x="90" y="350" width="120" height="60" as="geometry" />
        </mxCell>
        <mxCell id="E12AhFeayMc4gj6BtyuT-11" value="" style="rounded=1;whiteSpace=wrap;html=1;fillColor=#EDFBFF;" vertex="1" parent="WIyWlLk6GJQsqaUBKTNV-1">
          <mxGeometry x="240" y="150" width="330" height="260" as="geometry" />
        </mxCell>
        <mxCell id="E12AhFeayMc4gj6BtyuT-12" value="React" style="rounded=0;whiteSpace=wrap;html=1;fillColor=#f5f5f5;fontColor=#333333;strokeColor=#666666;" vertex="1" parent="WIyWlLk6GJQsqaUBKTNV-1">
          <mxGeometry x="240" y="150" width="120" height="40" as="geometry" />
        </mxCell>
        <mxCell id="E12AhFeayMc4gj6BtyuT-23" value="" style="group;" vertex="1" connectable="0" parent="WIyWlLk6GJQsqaUBKTNV-1">
          <mxGeometry x="100" y="210" width="90" height="90" as="geometry" />
        </mxCell>
        <mxCell id="E12AhFeayMc4gj6BtyuT-14" value="" style="rounded=0;whiteSpace=wrap;html=1;fillColor=#ffe6cc;strokeColor=#d79b00;" vertex="1" parent="E12AhFeayMc4gj6BtyuT-23">
          <mxGeometry width="70" height="10" as="geometry" />
        </mxCell>
        <mxCell id="E12AhFeayMc4gj6BtyuT-15" value="" style="rounded=0;whiteSpace=wrap;html=1;fillColor=#ffe6cc;strokeColor=#d79b00;" vertex="1" parent="E12AhFeayMc4gj6BtyuT-23">
          <mxGeometry y="10" width="70" height="10" as="geometry" />
        </mxCell>
        <mxCell id="E12AhFeayMc4gj6BtyuT-16" value="" style="rounded=0;whiteSpace=wrap;html=1;fillColor=#ffe6cc;strokeColor=#d79b00;" vertex="1" parent="E12AhFeayMc4gj6BtyuT-23">
          <mxGeometry y="20" width="70" height="10" as="geometry" />
        </mxCell>
        <mxCell id="E12AhFeayMc4gj6BtyuT-17" value="" style="rounded=0;whiteSpace=wrap;html=1;fillColor=#ffe6cc;strokeColor=#d79b00;" vertex="1" parent="E12AhFeayMc4gj6BtyuT-23">
          <mxGeometry x="10" y="30" width="70" height="10" as="geometry" />
        </mxCell>
        <mxCell id="E12AhFeayMc4gj6BtyuT-18" value="" style="rounded=0;whiteSpace=wrap;html=1;fillColor=#ffe6cc;strokeColor=#d79b00;" vertex="1" parent="E12AhFeayMc4gj6BtyuT-23">
          <mxGeometry x="20" y="40" width="70" height="10" as="geometry" />
        </mxCell>
        <mxCell id="E12AhFeayMc4gj6BtyuT-19" value="" style="rounded=0;whiteSpace=wrap;html=1;fillColor=#ffe6cc;strokeColor=#d79b00;" vertex="1" parent="E12AhFeayMc4gj6BtyuT-23">
          <mxGeometry x="10" y="50" width="70" height="10" as="geometry" />
        </mxCell>
        <mxCell id="E12AhFeayMc4gj6BtyuT-20" value="" style="rounded=0;whiteSpace=wrap;html=1;fillColor=#ffe6cc;strokeColor=#d79b00;" vertex="1" parent="E12AhFeayMc4gj6BtyuT-23">
          <mxGeometry x="20" y="60" width="70" height="10" as="geometry" />
        </mxCell>
        <mxCell id="E12AhFeayMc4gj6BtyuT-21" value="" style="rounded=0;whiteSpace=wrap;html=1;fillColor=#ffe6cc;strokeColor=#d79b00;" vertex="1" parent="E12AhFeayMc4gj6BtyuT-23">
          <mxGeometry y="70" width="70" height="10" as="geometry" />
        </mxCell>
        <mxCell id="E12AhFeayMc4gj6BtyuT-22" value="" style="rounded=0;whiteSpace=wrap;html=1;fillColor=#ffe6cc;strokeColor=#d79b00;" vertex="1" parent="E12AhFeayMc4gj6BtyuT-23">
          <mxGeometry x="10" y="80" width="70" height="10" as="geometry" />
        </mxCell>
        <mxCell id="E12AhFeayMc4gj6BtyuT-24" value="&amp;nbsp; virtual DOM&lt;br&gt;&lt;br&gt;&lt;br&gt;&lt;br&gt;&lt;br&gt;&lt;div&gt;&lt;br&gt;&lt;/div&gt;&lt;div&gt;&lt;br&gt;&lt;/div&gt;&lt;div&gt;&lt;br&gt;&lt;/div&gt;&lt;div&gt;&lt;br&gt;&lt;/div&gt;" style="rounded=1;whiteSpace=wrap;html=1;align=left;fillColor=#fff2cc;strokeColor=#d6b656;" vertex="1" parent="WIyWlLk6GJQsqaUBKTNV-1">
          <mxGeometry x="260" y="250" width="120" height="140" as="geometry" />
        </mxCell>
        <mxCell id="E12AhFeayMc4gj6BtyuT-25" value="" style="group;" vertex="1" connectable="0" parent="WIyWlLk6GJQsqaUBKTNV-1">
          <mxGeometry x="270" y="280" width="90" height="90" as="geometry" />
        </mxCell>
        <mxCell id="E12AhFeayMc4gj6BtyuT-26" value="" style="rounded=0;whiteSpace=wrap;html=1;fillColor=#fff2cc;strokeColor=#d6b656;" vertex="1" parent="E12AhFeayMc4gj6BtyuT-25">
          <mxGeometry width="70" height="10" as="geometry" />
        </mxCell>
        <mxCell id="E12AhFeayMc4gj6BtyuT-27" value="" style="rounded=0;whiteSpace=wrap;html=1;fillColor=#fff2cc;strokeColor=#d6b656;" vertex="1" parent="E12AhFeayMc4gj6BtyuT-25">
          <mxGeometry y="10" width="70" height="10" as="geometry" />
        </mxCell>
        <mxCell id="E12AhFeayMc4gj6BtyuT-28" value="" style="rounded=0;whiteSpace=wrap;html=1;fillColor=#fff2cc;strokeColor=#d6b656;" vertex="1" parent="E12AhFeayMc4gj6BtyuT-25">
          <mxGeometry y="20" width="70" height="10" as="geometry" />
        </mxCell>
        <mxCell id="E12AhFeayMc4gj6BtyuT-29" value="" style="rounded=0;whiteSpace=wrap;html=1;fillColor=#fff2cc;strokeColor=#d6b656;" vertex="1" parent="E12AhFeayMc4gj6BtyuT-25">
          <mxGeometry x="10" y="30" width="70" height="10" as="geometry" />
        </mxCell>
        <mxCell id="E12AhFeayMc4gj6BtyuT-30" value="" style="rounded=0;whiteSpace=wrap;html=1;fillColor=#fff2cc;strokeColor=#d6b656;" vertex="1" parent="E12AhFeayMc4gj6BtyuT-25">
          <mxGeometry x="20" y="40" width="70" height="10" as="geometry" />
        </mxCell>
        <mxCell id="E12AhFeayMc4gj6BtyuT-31" value="" style="rounded=0;whiteSpace=wrap;html=1;fillColor=#fff2cc;strokeColor=#d6b656;" vertex="1" parent="E12AhFeayMc4gj6BtyuT-25">
          <mxGeometry x="10" y="50" width="70" height="10" as="geometry" />
        </mxCell>
        <mxCell id="E12AhFeayMc4gj6BtyuT-32" value="" style="rounded=0;whiteSpace=wrap;html=1;fillColor=#fff2cc;strokeColor=#d6b656;" vertex="1" parent="E12AhFeayMc4gj6BtyuT-25">
          <mxGeometry x="20" y="60" width="70" height="10" as="geometry" />
        </mxCell>
        <mxCell id="E12AhFeayMc4gj6BtyuT-33" value="" style="rounded=0;whiteSpace=wrap;html=1;fillColor=#fff2cc;strokeColor=#d6b656;" vertex="1" parent="E12AhFeayMc4gj6BtyuT-25">
          <mxGeometry y="70" width="70" height="10" as="geometry" />
        </mxCell>
        <mxCell id="E12AhFeayMc4gj6BtyuT-34" value="" style="rounded=0;whiteSpace=wrap;html=1;fillColor=#fff2cc;strokeColor=#d6b656;" vertex="1" parent="E12AhFeayMc4gj6BtyuT-25">
          <mxGeometry x="10" y="80" width="70" height="10" as="geometry" />
        </mxCell>
        <mxCell id="E12AhFeayMc4gj6BtyuT-35" value="" style="endArrow=classic;html=1;rounded=0;entryX=0;entryY=0.5;entryDx=0;entryDy=0;" edge="1" parent="WIyWlLk6GJQsqaUBKTNV-1" target="E12AhFeayMc4gj6BtyuT-12">
          <mxGeometry width="50" height="50" relative="1" as="geometry">
            <mxPoint x="190" y="130" as="sourcePoint" />
            <mxPoint x="240" y="80" as="targetPoint" />
            <Array as="points">
              <mxPoint x="220" y="130" />
              <mxPoint x="220" y="170" />
            </Array>
          </mxGeometry>
        </mxCell>
        <mxCell id="E12AhFeayMc4gj6BtyuT-36" value="" style="endArrow=classic;html=1;rounded=0;exitX=1;exitY=0.5;exitDx=0;exitDy=0;entryX=0;entryY=0.5;entryDx=0;entryDy=0;" edge="1" parent="WIyWlLk6GJQsqaUBKTNV-1" source="E12AhFeayMc4gj6BtyuT-12" target="E12AhFeayMc4gj6BtyuT-13">
          <mxGeometry width="50" height="50" relative="1" as="geometry">
            <mxPoint x="490" y="220" as="sourcePoint" />
            <mxPoint x="540" y="170" as="targetPoint" />
          </mxGeometry>
        </mxCell>
        <mxCell id="E12AhFeayMc4gj6BtyuT-37" value="" style="endArrow=classic;html=1;rounded=0;exitX=1;exitY=0.5;exitDx=0;exitDy=0;entryX=0.5;entryY=0;entryDx=0;entryDy=0;" edge="1" parent="WIyWlLk6GJQsqaUBKTNV-1" target="E12AhFeayMc4gj6BtyuT-24">
          <mxGeometry width="50" height="50" relative="1" as="geometry">
            <mxPoint x="300" y="190" as="sourcePoint" />
            <mxPoint x="360" y="240" as="targetPoint" />
          </mxGeometry>
        </mxCell>
        <mxCell id="E12AhFeayMc4gj6BtyuT-38" value="" style="endArrow=classic;html=1;rounded=0;exitX=1;exitY=0.5;exitDx=0;exitDy=0;entryX=1;entryY=0.5;entryDx=0;entryDy=0;" edge="1" parent="WIyWlLk6GJQsqaUBKTNV-1" target="E12AhFeayMc4gj6BtyuT-9">
          <mxGeometry width="50" height="50" relative="1" as="geometry">
            <mxPoint x="240" y="170" as="sourcePoint" />
            <mxPoint x="250" y="240" as="targetPoint" />
          </mxGeometry>
        </mxCell>
        <mxCell id="E12AhFeayMc4gj6BtyuT-40" value="1" style="text;html=1;align=center;verticalAlign=middle;whiteSpace=wrap;rounded=0;" vertex="1" parent="WIyWlLk6GJQsqaUBKTNV-1">
          <mxGeometry x="200" y="115" width="60" height="30" as="geometry" />
        </mxCell>
        <mxCell id="E12AhFeayMc4gj6BtyuT-41" value="2" style="text;html=1;align=center;verticalAlign=middle;whiteSpace=wrap;rounded=0;" vertex="1" parent="WIyWlLk6GJQsqaUBKTNV-1">
          <mxGeometry x="370" y="170" width="60" height="30" as="geometry" />
        </mxCell>
        <mxCell id="E12AhFeayMc4gj6BtyuT-42" value="3" style="text;html=1;align=center;verticalAlign=middle;whiteSpace=wrap;rounded=0;" vertex="1" parent="WIyWlLk6GJQsqaUBKTNV-1">
          <mxGeometry x="290" y="210" width="60" height="30" as="geometry" />
        </mxCell>
        <mxCell id="E12AhFeayMc4gj6BtyuT-43" value="5" style="text;html=1;align=center;verticalAlign=middle;whiteSpace=wrap;rounded=0;" vertex="1" parent="WIyWlLk6GJQsqaUBKTNV-1">
          <mxGeometry x="150" y="320" width="30" height="30" as="geometry" />
        </mxCell>
        <mxCell id="E12AhFeayMc4gj6BtyuT-45" value="4" style="text;html=1;align=center;verticalAlign=middle;whiteSpace=wrap;rounded=0;" vertex="1" parent="WIyWlLk6GJQsqaUBKTNV-1">
          <mxGeometry x="200" y="210" width="60" height="30" as="geometry" />
        </mxCell>
        <mxCell id="E12AhFeayMc4gj6BtyuT-47" style="edgeStyle=orthogonalEdgeStyle;rounded=0;orthogonalLoop=1;jettySize=auto;html=1;exitX=0;exitY=0;exitDx=0;exitDy=0;entryX=0;entryY=1;entryDx=0;entryDy=0;" edge="1" parent="WIyWlLk6GJQsqaUBKTNV-1" source="E12AhFeayMc4gj6BtyuT-43" target="E12AhFeayMc4gj6BtyuT-43">
          <mxGeometry relative="1" as="geometry" />
        </mxCell>
        <mxCell id="E12AhFeayMc4gj6BtyuT-48" value="1. Run JS&lt;div&gt;2. Trigger a rendering of a component (and its sub components)&lt;/div&gt;&lt;div&gt;3. Update the virtual DOM with the latest output of the component&lt;/div&gt;&lt;div&gt;4. Synchronize the DOM with the virtual DOM - only change things in the DOM that have realy changed&lt;/div&gt;&lt;div&gt;5. The bowser will repaint the UI with the latest state in the UI&lt;/div&gt;" style="text;html=1;align=left;verticalAlign=middle;whiteSpace=wrap;rounded=0;" vertex="1" parent="WIyWlLk6GJQsqaUBKTNV-1">
          <mxGeometry x="600" y="110" width="180" height="300" as="geometry" />
        </mxCell>
        <mxCell id="E12AhFeayMc4gj6BtyuT-50" value="component" style="rounded=1;whiteSpace=wrap;html=1;fillColor=#dae8fc;strokeColor=#6c8ebf;" vertex="1" parent="WIyWlLk6GJQsqaUBKTNV-1">
          <mxGeometry x="440" y="220" width="120" height="40" as="geometry" />
        </mxCell>
        <mxCell id="E12AhFeayMc4gj6BtyuT-49" value="component" style="rounded=1;whiteSpace=wrap;html=1;fillColor=#dae8fc;strokeColor=#6c8ebf;" vertex="1" parent="WIyWlLk6GJQsqaUBKTNV-1">
          <mxGeometry x="430" y="210" width="120" height="40" as="geometry" />
        </mxCell>
        <mxCell id="E12AhFeayMc4gj6BtyuT-13" value="component" style="rounded=1;whiteSpace=wrap;html=1;fillColor=#dae8fc;strokeColor=#6c8ebf;" vertex="1" parent="WIyWlLk6GJQsqaUBKTNV-1">
          <mxGeometry x="420" y="200" width="120" height="40" as="geometry" />
        </mxCell>
      </root>
    </mxGraphModel>
  </diagram>
</mxfile>
